<svg xmlns="http://www.w3.org/2000/svg" width="25.583" height="38.913" viewBox="0 0 25.583 38.913">
  <path id="Icon_core-leaf" data-name="Icon core-leaf" d="M27.547,9.73a24.43,24.43,0,0,0-8.794-8.722L18.107.634l-.646.374A24.283,24.283,0,0,0,5.316,22.049c0,.278,0,.56.014.839a12.288,12.288,0,0,0,4.179,9.2,12.978,12.978,0,0,0,7.308,3.006v4.457H19.4V18.9H16.816V32.492A9.684,9.684,0,0,1,7.909,22.8c-.009-.25-.013-.5-.013-.751A21.8,21.8,0,0,1,18.107,3.63a21.8,21.8,0,0,1,10.21,18.418c0,.249,0,.5-.013.751a9.526,9.526,0,0,1-6.327,9.076v2.731A12.6,12.6,0,0,0,26.7,32.083a12.288,12.288,0,0,0,4.179-9.2c.009-.279.014-.561.014-.839A24.272,24.272,0,0,0,27.547,9.73Z" transform="translate(-5.316 -0.634)"/>
</svg>
