<svg xmlns="http://www.w3.org/2000/svg" width="23.136" height="24" viewBox="0 0 23.136 24">
  <path id="Icon_corebrands-civicrm" data-name="Icon corebrands-civicrm" d="M22.566,9.055A2.33,2.33,0,0,0,22.8,7.27,2.459,2.459,0,0,0,20.75,5.758l-7.055-1.5L6.495.406A3.605,3.605,0,0,0,4.948,0,1.929,1.929,0,0,0,3.526.57a2.376,2.376,0,0,0-.6,1.446c-.067,0-.133-.008-.2-.008A2.217,2.217,0,0,0,.8,2.848,2.556,2.556,0,0,0,.636,5.23l2.648,8.118.254,7.035c.043,1.219.719,2.535,2.1,2.535a2.556,2.556,0,0,0,.82-.148A2.211,2.211,0,0,0,8.319,24a2.688,2.688,0,0,0,1.957-1.062l5.11-5.7,6.781-4.281a2.878,2.878,0,0,0,1.4-2.23,2.156,2.156,0,0,0-1-1.672ZM7.395,20.164,5.066,13.03,4.754,4.183l8.324,1.773,6.77,3.621L14.22,15.854ZM20.379,7.512c.543.113.707.277.719.312a.663.663,0,0,1-.086.344L19.387,7.3ZM4.949,1.793a1.9,1.9,0,0,1,.7.191l1.739.93L4.7,2.341a.988.988,0,0,1,.121-.524.266.266,0,0,1,.133-.023ZM2.34,4.676c-.195-.6-.094-.774-.09-.778a.813.813,0,0,1,.477-.1,1.868,1.868,0,0,1,.218.011l.11,3.051Zm2.988,15.64-.027-.8.511,1.574a.9.9,0,0,1-.175.031C5.488,21.125,5.344,20.625,5.328,20.316Zm3.613,1.422c-.414.465-.617.469-.621.469-.058,0-.183-.133-.3-.316l1.82-1.149Zm12.274-10.3-1.445.914,1.695-1.89c.246.172.312.3.312.328C21.781,10.926,21.488,11.262,21.215,11.441Z" transform="translate(-0.429)"/>
</svg>
