<svg xmlns="http://www.w3.org/2000/svg" width="123.77" height="140.918" viewBox="0 0 123.77 140.918">
  <g id="Icon_akar-arrow-counter-clockwise" data-name="Icon akar-arrow-counter-clockwise" transform="translate(78.686 137.304) rotate(-160)">
    <path id="Path_107" data-name="Path 107" d="M-6.833,117.434c3.8,8.007,24.7-30.153,32.31-26.066,10.748-11.117,12.9-3.2,21.269-4.724A39.023,39.023,0,0,0,68.679,74.287,43.241,43.241,0,0,0,79.4,50.513,44.34,44.34,0,0,0,74.71,24.628,40.7,40.7,0,0,0,56.454,6.771,37.576,37.576,0,0,0,31.772,3.925a36.827,36.827,0,0,0-20.733,12.9,35.766,35.766,0,0,0-5.475,8.336" transform="translate(2.36 -3.687)" fill="none" stroke="#000" stroke-linecap="round" stroke-linejoin="round" stroke-width="2"/>
    <path id="Path_108" data-name="Path 108" d="M19.514,17.755,5.481,20.8,3,3.59" transform="translate(0 1.388)" fill="none" stroke="#000" stroke-linecap="round" stroke-linejoin="round" stroke-width="2"/>
  </g>
</svg>
