<svg xmlns="http://www.w3.org/2000/svg" width="19.967" height="22.269" viewBox="0 0 19.967 22.269">
  <path id="Icon_feather-phone-call" data-name="Icon feather-phone-call" d="M12.508,4.668A4.336,4.336,0,0,1,15.682,8.29M12.508,1c3.358.426,6.011,3.449,6.388,7.281m-.8,7.317v2.751a1.962,1.962,0,0,1-.521,1.359,1.488,1.488,0,0,1-1.231.475,14.692,14.692,0,0,1-6.934-2.815,16.951,16.951,0,0,1-4.821-5.5,19.856,19.856,0,0,1-2.467-7.95,2,2,0,0,1,.414-1.4,1.525,1.525,0,0,1,1.185-.6H6.128A1.69,1.69,0,0,1,7.735,3.494,13.154,13.154,0,0,0,8.3,6.071a2.026,2.026,0,0,1-.362,1.935L6.915,9.17a13.906,13.906,0,0,0,4.821,5.5l1.02-1.165a1.466,1.466,0,0,1,1.7-.413,9.289,9.289,0,0,0,2.258.642A1.78,1.78,0,0,1,18.093,15.6Z" transform="translate(-0.001 0.06) rotate(3)" fill="none" stroke="#000" stroke-linecap="round" stroke-linejoin="round" stroke-width="2"/>
</svg>
