<svg xmlns="http://www.w3.org/2000/svg" width="36.178" height="26.311" viewBox="0 0 36.178 26.311">
  <g id="Icon_material-twotone-people-alt" data-name="Icon material-twotone-people-alt" transform="translate(-1 -4)">
    <path id="Path_142" data-name="Path 142" d="M13.578,9.289A3.289,3.289,0,1,1,10.289,6,3.289,3.289,0,0,1,13.578,9.289Z" transform="translate(3.867 1.289)" opacity="0.3"/>
    <path id="Path_143" data-name="Path 143" d="M12.867,15C8.427,15,3.329,17.121,3,18.305v1.628H22.734V18.289C22.4,17.121,17.307,15,12.867,15Z" transform="translate(1.289 7.089)" opacity="0.3"/>
    <path id="Path_144" data-name="Path 144" d="M26.769,19.014c2.253,1.529,3.832,3.6,3.832,6.364v4.933h6.578V25.378C37.178,21.793,31.307,19.672,26.769,19.014Zm-2.746-1.858A6.578,6.578,0,0,0,24.023,4a6.871,6.871,0,0,0-2.187.395,9.834,9.834,0,0,1,0,12.366A6.871,6.871,0,0,0,24.023,17.156Zm-9.867,0a6.578,6.578,0,1,0-6.578-6.578A6.576,6.576,0,0,0,14.156,17.156Zm0-9.867a3.289,3.289,0,1,1-3.289,3.289A3.3,3.3,0,0,1,14.156,7.289Zm0,11.511C9.765,18.8,1,21,1,25.378v4.933H27.311V25.378C27.311,21,18.546,18.8,14.156,18.8Zm9.867,8.222H4.289V25.394c.329-1.184,5.427-3.305,9.867-3.305s9.538,2.121,9.867,3.289Z" transform="translate(0 0)"/>
  </g>
</svg>
