<svg xmlns="http://www.w3.org/2000/svg" xmlns:xlink="http://www.w3.org/1999/xlink" width="45.344" height="51.25" viewBox="0 0 45.344 51.25">
  <defs>
    <linearGradient id="linear-gradient" x1="0.5" x2="0.5" y2="1" gradientUnits="objectBoundingBox">
      <stop offset="0" stop-color="#c72bc7"/>
      <stop offset="1"/>
    </linearGradient>
  </defs>
  <g id="Icon_ion-finger-print-sharp" data-name="Icon ion-finger-print-sharp" transform="translate(-1.998 -0.75)">
    <path id="Path_136" data-name="Path 136" d="M3.5,17.006l1.312.8.78-1.441c1.759-2.945,7.14-9.817,19.05-9.817,12.205,0,17.405,7.463,19.114,9.919l.866,1.348L47.343,16.1l-.906-1.418a25.854,25.854,0,0,0-6.451-6.7A25.91,25.91,0,0,0,24.643,3.387C11.051,3.387,4.83,11.358,2.78,14.769L2,16.1l1.207.728a1.5,1.5,0,0,0,.173.117,1.335,1.335,0,0,0,.123.066Z" transform="translate(0 3.333)" fill="url(#linear-gradient)"/>
    <path id="Path_137" data-name="Path 137" d="M36.39,10.7A20.515,20.515,0,0,0,23.312,6,20.264,20.264,0,0,0,3.855,19.956c-2.043,6.417.44,15.715.544,16.113l.465,1.466,3.176-.682-.5-1.592c-.022-.08-2.345-8.8-.574-14.35a17.493,17.493,0,0,1,5.45-7.938,16.976,16.976,0,0,1,10.9-3.793c9.613,0,15.063,7.494,16.6,11.474,1.2,3.07.92,6.561-.666,8.7a3.716,3.716,0,0,1-3.2,1.626c-3.588-.183-4.209-1.956-5.072-5.333a12.285,12.285,0,0,0-1.9-4.67A6.747,6.747,0,0,0,23.324,18.5a7.483,7.483,0,0,0-6.3,2.73c-3.035,3.957-1.061,10.712-.977,11l.023.09c.15.41,3.829,10.258,13.683,12.7l1.568.341.859-3.047-1.621-.364C22.68,39.992,19.391,31.93,19.138,31.293a16.179,16.179,0,0,1-.541-3.162c-.115-1.535-.034-3.65,1-5a4.358,4.358,0,0,1,3.715-1.467c3.162,0,3.691,1.546,4.519,4.754.8,3.127,1.91,7.413,8.049,7.721A6.914,6.914,0,0,0,41.86,31.2c2.243-3,2.668-7.6,1.081-11.689A22.1,22.1,0,0,0,36.39,10.7Z" transform="translate(1.331 6.641)" fill="url(#linear-gradient)"/>
    <path id="Path_138" data-name="Path 138" d="M10.5,35.477c-.368-3,.15-7.535,2.818-10.484,1.851-2.047,4.541-3.078,7.98-3.078a9.716,9.716,0,0,1,8.969,5.265,16.344,16.344,0,0,1,1.9,5.651l.152,1.559,3.184-.233a11.953,11.953,0,0,0-.106-1.656,19.515,19.515,0,0,0-2.229-6.766,12.936,12.936,0,0,0-11.859-7c-4.4,0-7.912,1.4-10.407,4.151-3.38,3.729-4.07,9.154-3.6,12.985v.035a25.483,25.483,0,0,0,7.017,14.555l1.231,1.191,2.223-2.313-1.1-1.039A22.317,22.317,0,0,1,10.5,35.477ZM8.193,6.763C9.369,6.05,13.528,3.922,21.3,3.922c9.291,0,13.419,3.048,13.465,3.07l1.475.94,1.723-2.676-1.4-.908c-.055-.04-.112-.081-.17-.119C35.047,3.354,30.275.75,21.3.75,11.994.75,7.214,3.56,6.083,4.328l-1.442.935L6.36,7.938Z" transform="translate(3.34 0)" fill="url(#linear-gradient)"/>
    <path id="Path_139" data-name="Path 139" d="M27.272,25.965c-3.542.4-6.416-.283-8.566-2-3.634-2.911-4.105-7.971-4.117-8.066l-.131-1.579-3.24.237.139,1.592c.023.261.552,6.447,5.266,10.246a13.475,13.475,0,0,0,8.728,2.854,19.847,19.847,0,0,0,2.288-.137l1.761-.222-.647-3.153Z" transform="translate(11.656 17.153)" fill="url(#linear-gradient)"/>
  </g>
</svg>
