<svg xmlns="http://www.w3.org/2000/svg" width="22.5" height="21.137" viewBox="0 0 22.5 21.137">
  <g id="Icon_core-flower" data-name="Icon core-flower" transform="translate(-0.75 -1.738)">
    <path id="Path_121" data-name="Path 121" d="M19.125,14.25A7.885,7.885,0,0,0,12,18.773,7.885,7.885,0,0,0,4.875,14.25H.75V15a7.884,7.884,0,0,0,7.875,7.875h6.75A7.884,7.884,0,0,0,23.25,15v-.75Zm-10.5,7.125A6.384,6.384,0,0,1,2.294,15.75H4.875a6.384,6.384,0,0,1,6.331,5.625Zm6.75,0H12.794a6.384,6.384,0,0,1,6.331-5.625h2.581A6.384,6.384,0,0,1,15.375,21.375Z"/>
    <path id="Path_122" data-name="Path 122" d="M7.933,12.317a4.1,4.1,0,0,0,1.151,2.224l.22.22h.311A4.1,4.1,0,0,0,12,14a4.1,4.1,0,0,0,2.387.759H14.7l.22-.22a4.1,4.1,0,0,0,1.151-2.224,4.1,4.1,0,0,0,2.224-1.151l.22-.22v-.311a4.1,4.1,0,0,0-.759-2.387,4.1,4.1,0,0,0,.759-2.387V5.553l-.22-.22a4.1,4.1,0,0,0-2.224-1.151,4.1,4.1,0,0,0-1.151-2.224l-.22-.22h-.311A4.1,4.1,0,0,0,12,2.5a4.1,4.1,0,0,0-2.386-.759H9.3l-.22.22A4.1,4.1,0,0,0,7.933,4.182,4.1,4.1,0,0,0,5.708,5.333l-.22.22v.311A4.1,4.1,0,0,0,6.248,8.25a4.1,4.1,0,0,0-.759,2.387v.311l.22.22a4.1,4.1,0,0,0,2.225,1.151Zm-.175-4.6a2.6,2.6,0,0,1-.75-1.537,2.6,2.6,0,0,1,1.618-.557h.75v-.75a2.6,2.6,0,0,1,.557-1.617,2.6,2.6,0,0,1,1.538.75l.53.53.53-.53a2.6,2.6,0,0,1,1.538-.75,2.6,2.6,0,0,1,.557,1.618v.75h.75a2.6,2.6,0,0,1,1.617.557,2.6,2.6,0,0,1-.75,1.537l-.53.53.53.53a2.6,2.6,0,0,1,.75,1.537,2.6,2.6,0,0,1-1.618.557h-.75v.75a2.6,2.6,0,0,1-.557,1.617,2.6,2.6,0,0,1-1.537-.75l-.53-.53-.53.53a2.6,2.6,0,0,1-1.538.75,2.6,2.6,0,0,1-.557-1.618v-.75h-.75a2.6,2.6,0,0,1-1.617-.557,2.6,2.6,0,0,1,.75-1.537l.53-.53Z"/>
  </g>
</svg>
