<svg xmlns="http://www.w3.org/2000/svg" width="21.643" height="28.934" viewBox="0 0 21.643 28.934">
  <path id="Icon_material-personal-injury" data-name="Icon material-personal-injury" d="M9.411,7.787A5.607,5.607,0,0,1,14.821,2a5.607,5.607,0,0,1,5.411,5.787,5.607,5.607,0,0,1-5.411,5.787A5.607,5.607,0,0,1,9.411,7.787ZM21.585,30.934h1.353a2.812,2.812,0,0,0,2.705-2.893V21.125a4.344,4.344,0,0,0-2.178-3.848,19.523,19.523,0,0,0-1.88-.9Zm-6.3-7.233,3.6-8.2a17.231,17.231,0,0,0-4.058-.477,18.005,18.005,0,0,0-8.643,2.257A4.343,4.343,0,0,0,4,21.125v9.808H7.165a5.213,5.213,0,0,1-.46-2.17A4.913,4.913,0,0,1,11.44,23.7Zm-3.165,7.233,1.907-4.34H11.44a2.175,2.175,0,0,0,0,4.34Z" transform="translate(-4 -2)"/>
</svg>
