<svg xmlns="http://www.w3.org/2000/svg" width="23.011" height="23.111" viewBox="0 0 23.011 23.111">
  <path id="Icon_akar-whatsapp-fill" data-name="Icon akar-whatsapp-fill" d="M15.96,13.181c-.273-.137-1.612-.795-1.861-.886s-.431-.136-.613.137-.7.885-.861,1.067-.318.2-.59.069a7.477,7.477,0,0,1-2.19-1.352,8.2,8.2,0,0,1-1.515-1.887c-.159-.272-.017-.42.119-.555s.272-.318.409-.477a1.847,1.847,0,0,0,.272-.455.5.5,0,0,0-.023-.477c-.068-.137-.612-1.477-.839-2.023s-.445-.458-.612-.467-.341-.009-.522-.009a1,1,0,0,0-.726.341,3.05,3.05,0,0,0-.953,2.272A5.3,5.3,0,0,0,6.565,11.3a12.142,12.142,0,0,0,4.652,4.112,15.56,15.56,0,0,0,1.553.573,3.718,3.718,0,0,0,1.716.108,2.807,2.807,0,0,0,1.838-1.295,2.283,2.283,0,0,0,.159-1.295c-.068-.114-.249-.181-.522-.318Zm-4.969,6.785h0A9.047,9.047,0,0,1,6.374,18.7l-.329-.2-3.429.9.916-3.343-.215-.343a9.059,9.059,0,1,1,7.675,4.245ZM18.7,3.2A10.9,10.9,0,0,0,1.546,16.347L0,22l5.777-1.516a10.889,10.889,0,0,0,5.209,1.327h0A10.9,10.9,0,0,0,18.7,3.2" transform="translate(1.151 0) rotate(3)"/>
</svg>
